<svg width="128" height="128" viewBox="0 0 128 128" fill="none" xmlns="http://www.w3.org/2000/svg">
	<rect width="128" height="128" rx="64" fill="#F3AF19"/>
	<path d="M71.8831 95.1448C70.6837 94.9775 69.6049 95.1371 68.9616 94.6789C67.0089 93.2912 65.1048 91.7903 63.4006 90.1066C59.1056 85.8638 54.7516 81.7112 49.8082 78.215C48.8754 77.5534 48.2194 76.5081 47.3609 75.7229C43.7962 72.4636 40.1931 69.2481 36.631 65.9862C35.9852 65.3941 35.4624 64.6629 34.8448 63.9524C35.1241 63.2264 35.1907 62.539 35.5649 62.1631C37.0717 60.657 37.2844 59.0969 36.2209 57.2407C35.7084 56.3448 35.2779 55.3407 35.0882 54.3341C34.896 53.3043 35.0447 52.2102 35.0447 51.6695C36.7668 48.2995 38.3172 45.3878 39.7497 42.4168C40.7876 40.2645 41.4411 37.8986 42.6737 35.8802C43.8833 33.903 45.6131 32.2502 47.1072 30.4455C50.9435 25.814 54.7772 21.1799 58.7109 16.4248C62.3166 15.135 63.9593 15.135 66.5425 16.6436C65.0305 22.1093 61.8015 26.8669 60.9789 32.675C62.9752 30.2318 64.9203 27.7448 66.9832 25.3609C68.6669 23.4145 70.2865 21.3086 72.3264 19.8077C73.9281 18.6286 76.1269 18.2681 78.1052 17.5241C79.1098 18.1832 80.0811 18.8191 81.3163 19.6275C78.4845 24.2899 75.5118 28.9214 72.8082 33.7048C70.1661 38.3826 67.7931 43.2149 65.0894 48.387C66.4887 49.0049 67.8904 49.8365 69.405 50.2484C72.2521 51.0233 75.2479 51.3117 78.0258 52.2642C80.3809 53.07 82.5617 54.4422 84.7349 55.7114C88.461 57.8869 92.1179 60.1756 96.5155 62.8479C92.6612 62.8479 89.5758 62.8479 86.2289 62.8479C81.4547 73.6015 76.7521 84.1904 71.8831 95.1448ZM61.1096 54.7074C54.8234 57.372 53.1371 59.877 53.1602 66.3544C53.1628 67.1113 53.0987 67.8759 53.173 68.6251C53.6266 73.3081 57.7884 76.9664 61.5632 75.8027C63.2341 75.2878 64.9075 74.379 66.2426 73.2488C68.9334 70.9678 69.7791 67.5283 69.2871 64.3823C68.5593 59.7199 65.6712 56.283 61.1096 54.7074Z" fill="black"/>
	<path d="M29.048 84.1363C26.411 84.1363 24.6249 84.1363 21.8239 84.1363C24.1072 82.674 25.5244 81.5953 27.0825 80.8101C29.0916 79.7958 30.5805 78.6784 30.5856 76.0782C30.5882 74.6622 31.3391 73.2463 31.8311 71.5574C37.4715 74.8321 41.7179 79.9528 46.8765 83.9124C52.0583 87.8899 56.8274 92.4159 62.1219 96.9985C67.6342 96.9985 73.5129 96.9985 79.4788 96.9985C79.8735 97.8455 80.3655 98.4736 80.4475 99.1533C80.732 101.491 81.2394 103.602 83.7764 104.534C84.166 104.676 84.5734 105.075 84.7451 105.458C86.0444 108.37 88.5661 110.02 91.0877 111.683C91.0544 112.78 90.2754 113.648 91.3696 114.912C93.1866 117.007 92.8227 117.52 89.4169 119C87.5923 116.861 85.6805 114.618 83.8251 112.445C82.3029 112.942 81.0498 113.352 79.7377 113.782C80.2323 114.43 80.6858 115.028 81.3496 115.895C78.5563 116.111 76.0115 116.732 73.7308 114.551C73.2285 114.072 72.0163 114.343 70.5172 114.219C71.4269 115.923 72.1368 117.252 72.8108 118.511C70.184 118.758 70.184 118.758 67.1729 116.884C67.0012 115.839 66.8141 114.685 66.5937 113.346C65.9761 113.588 65.2842 113.712 65.2714 113.887C65.1766 115.154 65.2201 116.431 65.2201 117.836C64.3488 117.836 63.17 117.836 61.9809 117.836C61.3889 115.442 60.7995 113.053 60.0333 109.946C59.2747 110.947 58.7878 111.31 58.7135 111.745C58.5392 112.765 58.5649 113.818 58.4957 115.066C56.5275 115.066 54.7465 115.066 53.091 115.066C52.3478 116.117 51.7584 116.953 51.2715 117.643C48.55 118.588 46.446 117.334 43.9243 116.526C45.2697 114.644 46.4665 112.971 47.9554 110.89C45.8053 110.324 44.014 109.85 42.3098 109.4C41.4411 110.883 40.9516 112.136 40.0983 113.045C39.3064 113.887 38.1224 114.358 36.9872 115.071C34.7577 115.071 32.3564 115.071 29.7118 115.071C30.9495 112.51 32.095 110.141 33.3969 107.448C32.0566 107.15 30.9649 106.908 29.8348 106.655C31.2417 103.133 34.1631 100.379 35.3112 95.5851C33.9504 96.6663 33.3354 97.1581 32.5845 97.7528C30.5677 97.1709 28.4586 96.5608 26.4239 95.9712C25.9523 93.9683 25.9446 91.9808 26.0933 90.2276C26.2573 88.3379 27.7974 86.5666 29.048 84.1363Z" fill="black"/>
	<path d="M106.992 75.8903C108.686 78.5214 109.126 79.7468 109.447 82.8311C106.587 83.3434 103.709 83.8609 100.129 84.5019C103.629 85.3592 106.402 86.3246 109.247 86.6413C111.481 86.8885 113.104 88.0212 115 89.1823C115 89.9778 115 90.8583 115 92.1558C111.635 92.5034 108.183 92.1533 104.726 92.3644C103.837 93.1934 102.953 94.0172 102.033 94.8745C94.063 94.8745 86.0854 94.8745 78.0642 94.8745C82.4054 85.2073 86.6748 75.6997 91.0211 66.0274C94.8472 66.0274 98.7527 66.0274 103.004 66.0274C105.826 68.4809 106.282 72.2216 106.969 75.8594C106.382 75.087 105.656 74.3842 105.241 73.5269C104.695 72.3993 104.601 71.0168 102.873 70.1002C102.092 74.3018 104.936 77.0616 105.587 80.823C106.515 80.1974 107.084 79.8138 107.509 79.528C107.315 78.1661 107.153 77.0282 106.992 75.8903ZM100.58 81.1834C102.656 77.4993 99.9341 75.2286 99.7265 72.6413C99.6163 71.2768 98.9064 70.4426 97.092 70.4864C96.6871 74.4099 98.95 77.2959 100.58 81.1834Z" fill="black"/>
	<path d="M96.1618 41.4334C95.4135 44.9939 94.7062 48.3587 93.7862 52.7225C93.143 48.2763 92.6561 44.9038 92.1666 41.5312C89.4553 40.1178 86.0649 40.8592 83.1947 38.7842C85.8471 38.2848 88.1535 37.8574 90.4547 37.412C91.6259 37.1855 92.2717 36.4517 92.4229 35.2597C92.7791 32.4613 93.1456 29.6628 93.6478 25.7805C94.3398 27.9019 94.8164 29.0295 95.0676 30.206C95.5288 32.3634 95.8569 34.5518 96.2618 36.8379C98.9628 37.5021 101.377 38.0917 104.111 38.7636C101.825 40.7614 98.9731 40.5297 96.1618 41.4334Z" fill="black"/>
	<path d="M21.0166 46.6132C20.6117 48.5415 20.2273 50.3617 19.7327 52.7225C19.3842 50.3153 19.1202 48.49 18.8563 46.6647C17.3879 45.9001 15.553 46.3017 14 45.1767C15.4351 44.9063 16.6831 44.6746 17.9286 44.4326C18.5616 44.3091 18.9126 43.9126 18.9946 43.2664C19.1868 41.7526 19.3867 40.2388 19.6584 38.1354C20.0325 39.2837 20.2914 39.8938 20.4272 40.5297C20.6758 41.6985 20.8551 42.8802 21.073 44.1185C22.5363 44.4764 23.8407 44.7982 25.3219 45.1612C24.079 46.2476 22.5363 46.1241 21.0166 46.6132Z" fill="black"/>
	<path d="M109.608 28.4734C108.355 28.2958 107.345 28.1542 106.043 27.9714C107.356 27.2325 108.365 26.661 109.608 25.9633C109.698 24.797 109.795 23.4866 109.895 22.1762C110.057 22.1736 110.218 22.1685 110.379 22.1659C110.5 23.4454 110.618 24.725 110.738 26.0199C111.85 26.6121 112.901 27.1707 114.282 27.9044C113.009 28.1207 112.048 28.2829 110.8 28.494C110.674 29.7272 110.538 31.0324 110.405 32.3377C110.292 32.3583 110.18 32.3789 110.067 32.3969C109.967 31.8408 109.836 31.2899 109.772 30.7312C109.693 30.0026 109.665 29.2741 109.608 28.4734Z" fill="black"/>
	<path d="M93.0994 15.3075C91.8463 15.1298 90.8366 14.9882 89.5347 14.8055C90.8468 14.0666 91.8565 13.495 93.0994 12.7974C93.1891 11.6311 93.2865 10.3207 93.3864 9.0103C93.5479 9.00772 93.7093 9.00257 93.8708 9C93.9912 10.2795 94.1091 11.559 94.2295 12.854C95.3417 13.4461 96.3924 14.0048 97.7737 14.7385C96.5001 14.9548 95.5391 15.117 94.291 15.3281C94.1655 16.5613 94.0297 17.8665 93.8964 19.1718C93.7836 19.1924 93.6709 19.213 93.5581 19.231C93.4582 18.6749 93.3275 18.124 93.2634 17.5653C93.184 16.8393 93.1558 16.1107 93.0994 15.3075Z" fill="black"/>
	<path d="M31.7055 15.3075C30.4523 15.1298 29.4426 14.9882 28.1408 14.8055C29.4529 14.0666 30.4626 13.495 31.7055 12.7974C31.7952 11.6311 31.8926 10.3207 31.9925 9.0103C32.154 9.00772 32.3154 9.00257 32.4768 9C32.5973 10.2795 32.7152 11.559 32.8356 12.854C33.9478 13.4461 34.9985 14.0048 36.3798 14.7385C35.1061 14.9548 34.1451 15.117 32.8971 15.3281C32.7716 16.5613 32.6357 17.8665 32.5025 19.1718C32.3897 19.1924 32.277 19.213 32.1642 19.231C32.0643 18.6749 31.9336 18.124 31.8695 17.5653C31.7901 16.8393 31.7619 16.1107 31.7055 15.3075Z" fill="black"/>
	<path d="M61.1096 54.7074C65.6711 56.283 68.5567 59.7173 69.2871 64.3823C69.7791 67.5283 68.9334 70.9678 66.2426 73.2488C64.9075 74.3816 63.234 75.2878 61.5632 75.8027C57.7883 76.9664 53.6266 73.3055 53.173 68.6251C53.1012 67.8759 53.1627 67.1113 53.1602 66.3544C53.1371 59.8795 54.8233 57.3746 61.1096 54.7074ZM65.0023 67.1653C64.9408 65.7391 63.0546 63.9627 61.6939 64.0476C60.369 64.13 59.5412 65.3246 59.6488 66.998C59.7616 68.7512 60.8123 69.5828 62.6959 69.4129C64.0823 69.2867 65.0535 68.3393 65.0023 67.1653Z" fill="#F3AF19"/>
	<path d="M100.58 81.1834C98.9525 77.2959 96.6871 74.4099 97.092 70.4864C98.9064 70.4427 99.6163 71.2768 99.7265 72.6413C99.934 75.2312 102.656 77.5019 100.58 81.1834Z" fill="#F3AF19"/>
	<path d="M106.992 75.8903C107.153 77.0282 107.315 78.1687 107.507 79.528C107.079 79.8163 106.512 80.1974 105.585 80.823C104.931 77.0616 102.089 74.3018 102.871 70.1002C104.598 71.0168 104.693 72.3993 105.239 73.5269C105.654 74.3842 106.379 75.087 106.966 75.8594L106.992 75.8903Z" fill="#F3AF19"/>
	<path d="M65.0023 67.1653C65.0536 68.3393 64.0823 69.2867 62.6959 69.4129C60.8098 69.5828 59.7591 68.7512 59.6489 66.998C59.5412 65.3246 60.3716 64.13 61.6939 64.0476C63.0547 63.9627 64.9408 65.7391 65.0023 67.1653Z" fill="black"/>
</svg>