<?xml version="1.0" encoding="utf-8"?>
<!-- Generator: Adobe Illustrator 24.0.0, SVG Export Plug-In . SVG Version: 6.00 Build 0)  -->
<svg version="1.1" id="Layer_1" xmlns="http://www.w3.org/2000/svg" xmlns:xlink="http://www.w3.org/1999/xlink" x="0px" y="0px"
	 viewBox="0 0 612 792" style="enable-background:new 0 0 612 792;" xml:space="preserve">
<style type="text/css">
	.st0{fill:#FFFFFF;}
</style>
<path d="M327.24,475.1c-4.68-0.65-8.89-0.03-11.4-1.81c-7.62-5.39-15.05-11.22-21.7-17.76c-16.76-16.48-33.75-32.61-53.04-46.19
	c-3.64-2.57-6.2-6.63-9.55-9.68c-13.91-12.66-27.97-25.15-41.87-37.82c-2.52-2.3-4.56-5.14-6.97-7.9c1.09-2.82,1.35-5.49,2.81-6.95
	c5.88-5.85,6.71-11.91,2.56-19.12c-2-3.48-3.68-7.38-4.42-11.29c-0.75-4-0.17-8.25-0.17-10.35c6.72-13.09,12.77-24.4,18.36-35.94
	c4.05-8.36,6.6-17.55,11.41-25.39c4.72-7.68,11.47-14.1,17.3-21.11c14.97-17.99,29.93-35.99,45.28-54.46
	c14.07-5.01,20.48-5.01,30.56,0.85c-5.9,21.23-18.5,39.71-21.71,62.27c7.79-9.49,15.38-19.15,23.43-28.41
	c6.57-7.56,12.89-15.74,20.85-21.57c6.25-4.58,14.83-5.98,22.55-8.87c3.92,2.56,7.71,5.03,12.53,8.17
	c-11.05,18.11-22.65,36.1-33.2,54.68c-10.31,18.17-19.57,36.94-30.12,57.03c5.46,2.4,10.93,5.63,16.84,7.23
	c11.11,3.01,22.8,4.13,33.64,7.83c9.19,3.13,17.7,8.46,26.18,13.39c14.54,8.45,28.81,17.34,45.97,27.72c-15.04,0-27.08,0-40.14,0
	C364.59,391.42,346.24,432.55,327.24,475.1z M285.2,318.03c-24.53,10.35-31.11,20.08-31.02,45.24c0.01,2.94-0.24,5.91,0.05,8.82
	c1.77,18.19,18.01,32.4,32.74,27.88c6.52-2,13.05-5.53,18.26-9.92c10.5-8.86,13.8-22.22,11.88-34.44
	C314.27,337.5,303,324.15,285.2,318.03z"/>
<path d="M160.09,432.34c-10.29,0-17.26,0-28.19,0c8.91-5.68,14.44-9.87,20.52-12.92c7.84-3.94,13.65-8.28,13.67-18.38
	c0.01-5.5,2.94-11,4.86-17.56c22.01,12.72,38.58,32.61,58.71,47.99c20.22,15.45,38.83,33.03,59.49,50.83c21.51,0,44.45,0,67.73,0
	c1.54,3.29,3.46,5.73,3.78,8.37c1.11,9.08,3.09,17.28,12.99,20.9c1.52,0.55,3.11,2.1,3.78,3.59c5.07,11.31,14.91,17.72,24.75,24.18
	c-0.13,4.26-3.17,7.63,1.1,12.54c7.09,8.14,5.67,10.13-7.62,15.88c-7.12-8.31-14.58-17.02-21.82-25.46
	c-5.94,1.93-10.83,3.52-15.95,5.19c1.93,2.52,3.7,4.84,6.29,8.21c-10.9,0.84-20.83,3.25-29.73-5.22c-1.96-1.86-6.69-0.81-12.54-1.29
	c3.55,6.62,6.32,11.78,8.95,16.67c-10.25,0.96-10.25,0.96-22-6.32c-0.67-4.06-1.4-8.54-2.26-13.74c-2.41,0.94-5.11,1.42-5.16,2.1
	c-0.37,4.92-0.2,9.88-0.2,15.34c-3.4,0-8,0-12.64,0c-2.31-9.3-4.61-18.58-7.6-30.65c-2.96,3.89-4.86,5.3-5.15,6.99
	c-0.68,3.96-0.58,8.05-0.85,12.9c-7.68,0-14.63,0-21.09,0c-2.9,4.08-5.2,7.33-7.1,10.01c-10.62,3.67-18.83-1.2-28.67-4.34
	c5.25-7.31,9.92-13.81,15.73-21.89c-8.39-2.2-15.38-4.04-22.03-5.79c-3.39,5.76-5.3,10.63-8.63,14.16
	c-3.09,3.27-7.71,5.1-12.14,7.87c-8.7,0-18.07,0-28.39,0c4.83-9.95,9.3-19.15,14.38-29.61c-5.23-1.16-9.49-2.1-13.9-3.08
	c5.49-13.68,16.89-24.38,21.37-43c-5.31,4.2-7.71,6.11-10.64,8.42c-7.87-2.26-16.1-4.63-24.04-6.92c-1.84-7.78-1.87-15.5-1.29-22.31
	C149.2,448.66,155.21,441.78,160.09,432.34z"/>
<path d="M464.24,400.31c6.61,10.22,8.33,14.98,9.58,26.96c-11.16,1.99-22.39,4-36.36,6.49c13.66,3.33,24.48,7.08,35.58,8.31
	c8.72,0.96,15.05,5.36,22.45,9.87c0,3.09,0,6.51,0,11.55c-13.13,1.35-26.6-0.01-40.09,0.81c-3.47,3.22-6.92,6.42-10.51,9.75
	c-31.1,0-62.23,0-93.53,0c16.94-37.55,33.6-74.48,50.56-112.05c14.93,0,30.17,0,46.76,0c11.01,9.53,12.79,24.06,15.47,38.19
	c-2.29-3-5.12-5.73-6.74-9.06c-2.13-4.38-2.5-9.75-9.24-13.31c-3.05,16.32,8.05,27.04,10.59,41.65c3.62-2.43,5.84-3.92,7.5-5.03
	C465.5,409.15,464.87,404.73,464.24,400.31z M439.22,420.87c8.1-14.31-2.52-23.13-3.33-33.18c-0.43-5.3-3.2-8.54-10.28-8.37
	C424.03,394.56,432.86,405.77,439.22,420.87z"/>
<path d="M421.98,266.47c-2.92,13.83-5.68,26.9-9.27,43.85c-2.51-17.27-4.41-30.37-6.32-43.47c-10.58-5.49-23.81-2.61-35.01-10.67
	c10.35-1.94,19.35-3.6,28.33-5.33c4.57-0.88,7.09-3.73,7.68-8.36c1.39-10.87,2.82-21.74,4.78-36.82c2.7,8.24,4.56,12.62,5.54,17.19
	c1.8,8.38,3.08,16.88,4.66,25.76c10.54,2.58,19.96,4.87,30.63,7.48C444.08,263.86,432.95,262.96,421.98,266.47z"/>
<path d="M128.75,286.59c-1.58,7.49-3.08,14.56-5.01,23.73c-1.36-9.35-2.39-16.44-3.42-23.53c-5.73-2.97-12.89-1.41-18.95-5.78
	c5.6-1.05,10.47-1.95,15.33-2.89c2.47-0.48,3.84-2.02,4.16-4.53c0.75-5.88,1.53-11.76,2.59-19.93c1.46,4.46,2.47,6.83,3,9.3
	c0.97,4.54,1.67,9.13,2.52,13.94c5.71,1.39,10.8,2.64,16.58,4.05C140.7,285.17,134.68,284.69,128.75,286.59z"/>
<path d="M474.45,216.13c-4.89-0.69-8.83-1.24-13.91-1.95c5.12-2.87,9.06-5.09,13.91-7.8c0.35-4.53,0.73-9.62,1.12-14.71
	c0.63-0.01,1.26-0.03,1.89-0.04c0.47,4.97,0.93,9.94,1.4,14.97c4.34,2.3,8.44,4.47,13.83,7.32c-4.97,0.84-8.72,1.47-13.59,2.29
	c-0.49,4.79-1.02,9.86-1.54,14.93c-0.44,0.08-0.88,0.16-1.32,0.23c-0.39-2.16-0.9-4.3-1.15-6.47
	C474.78,222.07,474.67,219.24,474.45,216.13z"/>
<path d="M410.03,164.99c-4.89-0.69-8.83-1.24-13.91-1.95c5.12-2.87,9.06-5.09,13.91-7.8c0.35-4.53,0.73-9.62,1.12-14.71
	c0.63-0.01,1.26-0.03,1.89-0.04c0.47,4.97,0.93,9.94,1.4,14.97c4.34,2.3,8.44,4.47,13.83,7.32c-4.97,0.84-8.72,1.47-13.59,2.29
	c-0.49,4.79-1.02,9.86-1.54,14.93c-0.44,0.08-0.88,0.16-1.32,0.23c-0.39-2.16-0.9-4.3-1.15-6.47
	C410.36,170.94,410.25,168.11,410.03,164.99z"/>
<path d="M170.46,164.99c-4.89-0.69-8.83-1.24-13.91-1.95c5.12-2.87,9.06-5.09,13.91-7.8c0.35-4.53,0.73-9.62,1.12-14.71
	c0.63-0.01,1.26-0.03,1.89-0.04c0.47,4.97,0.93,9.94,1.4,14.97c4.34,2.3,8.44,4.47,13.83,7.32c-4.97,0.84-8.72,1.47-13.59,2.29
	c-0.49,4.79-1.02,9.86-1.54,14.93c-0.44,0.08-0.88,0.16-1.32,0.23c-0.39-2.16-0.9-4.3-1.15-6.47
	C170.79,170.94,170.68,168.11,170.46,164.99z"/>
<path class="st0" d="M285.2,318.03c17.8,6.12,29.06,19.46,31.91,37.58c1.92,12.22-1.38,25.58-11.88,34.44
	c-5.21,4.4-11.74,7.92-18.26,9.92c-14.73,4.52-30.97-9.7-32.74-27.88c-0.28-2.91-0.04-5.88-0.05-8.82
	C254.09,338.12,260.67,328.39,285.2,318.03z M300.39,366.42c-0.24-5.54-7.6-12.44-12.91-12.11c-5.17,0.32-8.4,4.96-7.98,11.46
	c0.44,6.81,4.54,10.04,11.89,9.38C296.8,374.66,300.59,370.98,300.39,366.42z"/>
<path class="st0" d="M439.22,420.87c-6.35-15.1-15.19-26.31-13.61-41.55c7.08-0.17,9.85,3.07,10.28,8.37
	C436.7,397.75,447.32,406.57,439.22,420.87z"/>
<path class="st0" d="M464.24,400.31c0.63,4.42,1.26,8.85,2.01,14.13c-1.67,1.12-3.88,2.6-7.5,5.03
	c-2.55-14.61-13.64-25.33-10.59-41.65c6.74,3.56,7.11,8.93,9.24,13.31c1.62,3.33,4.45,6.06,6.74,9.06L464.24,400.31z"/>
<path d="M300.39,366.42c0.2,4.56-3.59,8.24-9,8.73c-7.36,0.66-11.46-2.57-11.89-9.38c-0.42-6.5,2.82-11.14,7.98-11.46
	C292.79,353.98,300.15,360.88,300.39,366.42z"/>
</svg>
